<svg width="26" height="25" viewBox="0 0 26 25" fill="none" xmlns="http://www.w3.org/2000/svg">
<path d="M23.0465 3.14288H2.95349C1.87461 3.14288 1 4.03831 1 5.14288V22C1 23.1046 1.87461 24 2.95349 24H23.0465C24.1254 24 25 23.1046 25 22V5.14288C25 4.03831 24.1254 3.14288 23.0465 3.14288Z" stroke="#53B253" stroke-width="1.5" stroke-miterlimit="10"/>
<path d="M25 8H1" stroke="#53B253" stroke-width="1.5" stroke-miterlimit="10"/>
<path d="M20.093 14.2858H16.2325C15.6803 14.2858 15.2325 14.7335 15.2325 15.2858V19.2858C15.2325 19.8381 15.6803 20.2858 16.2325 20.2858H20.093C20.6453 20.2858 21.093 19.8381 21.093 19.2858V15.2858C21.093 14.7335 20.6453 14.2858 20.093 14.2858Z" stroke="#53B253" stroke-width="1.5"/>
<line x1="5.25" y1="3" x2="5.25" stroke="#53B253" stroke-width="1.5"/>
<line x1="21.25" y1="3" x2="21.25" stroke="#53B253" stroke-width="1.5"/>
</svg>
