<svg width="35" height="35" viewBox="0 0 35 35" fill="none" xmlns="http://www.w3.org/2000/svg">
<path d="M17.33 33.66C26.3488 33.66 33.66 26.3488 33.66 17.33C33.66 8.31119 26.3488 1 17.33 1C8.31119 1 1 8.31119 1 17.33C1 26.3488 8.31119 33.66 17.33 33.66Z" stroke="#53B253" stroke-width="1.5" stroke-linecap="round" stroke-linejoin="round"/>
<path d="M17.33 11.6314L11.9114 15.5677L13.9784 21.9416H20.6816L22.7569 15.5677L17.33 11.6314Z" stroke="#53B253" stroke-width="1.5" stroke-linecap="round" stroke-linejoin="round"/>
<path d="M1.31293 15.5842L3.0011 16.9183L8.7656 13.5008L7.29154 6.96217L5.15867 6.76453" stroke="#53B253" stroke-width="1.5" stroke-linecap="round" stroke-linejoin="round"/>
<path d="M13.1137 1.60938L12.4219 3.91517L17.717 8.0162L23.2592 4.25281L22.5922 1.94701" stroke="#53B253" stroke-width="1.5" stroke-linecap="round" stroke-linejoin="round"/>
<path d="M33.4212 15.8724L31.5189 17.3464L25.7791 13.8795L27.3026 7.35736L29.6907 7.15149" stroke="#53B253" stroke-width="1.5" stroke-linecap="round" stroke-linejoin="round"/>
<path d="M11.5573 32.5482L13.476 31.0989L11.6067 24.6591L4.91164 24.445L4.09637 26.7014" stroke="#53B253" stroke-width="1.5" stroke-linecap="round" stroke-linejoin="round"/>
<path d="M23.1357 32.5482L21.2169 31.0989L23.078 24.6591L29.7813 24.445L30.5966 26.7014" stroke="#53B253" stroke-width="1.5" stroke-linecap="round" stroke-linejoin="round"/>
<path d="M17.33 11.6314L17.7171 8.01624" stroke="#53B253" stroke-width="1.5" stroke-linecap="round" stroke-linejoin="round"/>
<path d="M22.7568 15.5678L25.7791 13.8878" stroke="#53B253" stroke-width="1.5" stroke-linecap="round" stroke-linejoin="round"/>
<path d="M11.9114 15.5678L8.76562 13.5008" stroke="#53B253" stroke-width="1.5" stroke-linecap="round" stroke-linejoin="round"/>
<path d="M13.9784 21.9498L11.6973 24.5603" stroke="#53B253" stroke-width="1.5" stroke-linecap="round" stroke-linejoin="round"/>
<path d="M20.6816 21.9498L22.971 24.5356" stroke="#53B253" stroke-width="1.5" stroke-linecap="round" stroke-linejoin="round"/>
</svg>
