<svg width="69" height="66" viewBox="0 0 69 66" fill="none" xmlns="http://www.w3.org/2000/svg">
<path d="M33.322 0C14.9483 0 0 14.8038 0 33C0 51.1962 14.9483 66 33.322 66C51.6958 66 66.644 51.1962 66.644 33C66.644 29.2842 65.9909 25.7209 64.8413 22.3846L59.446 27.7277C59.7958 29.4305 59.9796 31.1949 59.9796 33C59.9796 47.5563 48.0204 59.4 33.322 59.4C18.6237 59.4 6.6644 47.5563 6.6644 33C6.6644 18.4437 18.6237 6.6 33.322 6.6C38.7635 6.6 43.8249 8.22984 48.0501 11.015L52.8206 6.29063C47.3291 2.35043 40.6029 0 33.322 0ZM64.2881 4.2668L29.9898 38.2336L19.017 27.3668L14.305 32.0332L29.9898 47.5664L69 8.9332L64.2881 4.2668Z" fill="#53B253"/>
</svg>
