<svg width="24" height="24" viewBox="0 0 24 24" fill="none" xmlns="http://www.w3.org/2000/svg">
<path d="M12 0C5.3868 0 0 5.3868 0 12C0 18.6132 5.3868 24 12 24C18.6132 24 24 18.6132 24 12C24 5.3868 18.6132 0 12 0ZM12 2.4C17.3161 2.4 21.6 6.68385 21.6 12C21.6 17.3161 17.3161 21.6 12 21.6C6.68385 21.6 2.4 17.3161 2.4 12C2.4 6.68385 6.68385 2.4 12 2.4ZM8.04844 6.35156L6.35156 8.04844L10.3031 12L6.35156 15.9516L8.04844 17.6484L12 13.6969L15.9516 17.6484L17.6484 15.9516L13.6969 12L17.6484 8.04844L15.9516 6.35156L12 10.3031L8.04844 6.35156Z" fill="white"/>
</svg>
