<svg width="27" height="20" viewBox="0 0 27 20" fill="none" xmlns="http://www.w3.org/2000/svg">
<path d="M1 2.875C1 2.5775 1.11 1.9975 1.3 1.76875C1.52 1.5 2.00625 1 2.31 1C8.2475 1 19.3062 1 24.5938 1C24.8625 1 25.505 1.3425 25.6613 1.5025C25.89 1.73875 26.0525 2.33125 26.0525 2.615C26.0525 6.4175 26.0525 13.9037 26.0525 17.615C26.0525 17.8537 25.8412 18.3187 25.6887 18.5012C25.52 18.7037 25.0662 19.0737 24.8025 19.0737C17.6925 19.0737 8.1625 19.0737 2.71875 19.0737C2.43 19.0737 1.85 18.89 1.625 18.7087C1.38875 18.5187 1 17.9712 1 17.6675C1 14.255 1 6.70625 1 2.875Z" stroke="#418C41" stroke-width="1.5" stroke-miterlimit="10"/>
<path d="M11.5987 14.4896C10.01 14.4896 5.81746 14.4896 3.94246 14.4896C3.51996 14.4896 3.86121 13.2121 3.94246 12.7971C4.02746 12.3658 4.45121 11.5583 4.74996 11.2346C5.04621 10.9133 5.79746 10.3096 6.23496 10.3096C6.98996 10.3096 8.63121 10.3096 9.41246 10.3096C9.87121 10.3096 10.66 10.9571 10.9487 11.3133C11.1487 11.5596 11.485 12.1058 11.6 12.4008C11.7875 12.8871 12.1212 14.4896 11.5987 14.4896Z" stroke="#418C41" stroke-miterlimit="10"/>
<path d="M7.73126 8.52648C8.80269 8.52648 9.67126 7.65792 9.67126 6.58648C9.67126 5.51505 8.80269 4.64648 7.73126 4.64648C6.65983 4.64648 5.79126 5.51505 5.79126 6.58648C5.79126 7.65792 6.65983 8.52648 7.73126 8.52648Z" stroke="#418C41" stroke-miterlimit="10"/>
<line x1="14" y1="6.75" x2="24" y2="6.75" stroke="#418C41" stroke-width="0.5"/>
<line x1="14" y1="8.75" x2="24" y2="8.75" stroke="#418C41" stroke-width="0.5"/>
<line x1="14" y1="10.75" x2="24" y2="10.75" stroke="#418C41" stroke-width="0.5"/>
<line x1="14" y1="12.75" x2="24" y2="12.75" stroke="#418C41" stroke-width="0.5"/>
</svg>
