<svg id="Camada_1" data-name="Camada 1" xmlns="http://www.w3.org/2000/svg" viewBox="0 0 24 18.02"><defs><style>.cls-1{fill:#008d38;}</style></defs><path class="cls-1" d="M13.56,3.14a10.84,10.84,0,0,0-2.92,0A11.38,11.38,0,0,0,6.58,4.65L8,6.09a9.6,9.6,0,0,1,3.07-1,8.93,8.93,0,0,1,2.34,0c5.06.7,7.8,5.74,8.37,6.84a15.8,15.8,0,0,1-3.35,4.56l1.35,1.35a18.14,18.14,0,0,0,4.2-6C23.38,10.59,19.94,4,13.56,3.14Zm2.59,15a8.05,8.05,0,0,1-2.76.88,9.51,9.51,0,0,1-2.7-.09C5.62,18,2.83,13.23,2.13,12A17.41,17.41,0,0,1,5.68,7.68a9.56,9.56,0,0,1,1.11-.85h0L5.4,5.44a11.51,11.51,0,0,0-1.08.88h0A20.74,20.74,0,0,0,0,11.91c.39.91,3.46,7.84,10,9a11.33,11.33,0,0,0,4.23-.09,11,11,0,0,0,3.3-1.29,11,11,0,0,0,1.18-.78l-1.35-1.35A7.93,7.93,0,0,1,16.15,18.15Z" transform="translate(0 -3.06)"/><path class="cls-1" d="M12,8.19a3.85,3.85,0,0,0-1.56.32L12,10.09A2,2,0,0,1,14,12l1.6,1.6A3.9,3.9,0,0,0,12,8.19ZM12,14h0a2,2,0,0,1-2-2v0a1.94,1.94,0,0,1,.59-1.37L9.27,9.31a3.87,3.87,0,0,0-.81,1.15,3.8,3.8,0,0,0-.35,1.62A3.89,3.89,0,0,0,12,16a3.8,3.8,0,0,0,1.62-.35,3.87,3.87,0,0,0,1.15-.81L13.4,13.44A1.94,1.94,0,0,1,12,14Z" transform="translate(0 -3.06)"/><polygon class="cls-1" points="20 16.98 19.02 17.96 4.32 3.26 4.31 3.26 2.93 1.87 3.91 0.89 5.4 2.38 6.79 3.77 9.27 6.25 17.37 14.35 18.72 15.7 20 16.98"/></svg>