<svg width="68" height="85" viewBox="0 0 68 85" fill="none" xmlns="http://www.w3.org/2000/svg">
<path d="M28.9714 44H39.0286C42.5705 44 46.0778 44.6748 49.3501 45.9859C52.6224 47.2969 55.5957 49.2186 58.1003 51.6411C60.6048 54.0637 62.5915 56.9396 63.9469 60.1048C65.3024 63.27 66 66.6624 66 70.0884V83H2V70.0884C2 63.1693 4.84162 56.5337 9.89975 51.6411C14.9579 46.7486 21.8182 44 28.9714 44V44Z" stroke="#53B253" stroke-width="4" stroke-miterlimit="10"/>
<path d="M33.5 36C42.6127 36 50 28.3888 50 19C50 9.61116 42.6127 2 33.5 2C24.3873 2 17 9.61116 17 19C17 28.3888 24.3873 36 33.5 36Z" stroke="#53B253" stroke-width="4" stroke-miterlimit="10"/>
</svg>
