<svg id="Camada_1" data-name="Camada 1" xmlns="http://www.w3.org/2000/svg" viewBox="0 0 155.07 60.96"><defs><style>.cls-1,.cls-3{fill:none;stroke-miterlimit:10;}.cls-1{stroke:#4da64d;}.cls-2{fill:#4da64d;}.cls-3{stroke:#000;stroke-width:0.25px;}</style></defs><polygon class="cls-1" points="18.74 29.2 136.34 29.2 77.62 4.24 18.74 29.2"/><polygon class="cls-1" points="2.46 32.41 152.62 32.41 77.64 0.54 2.46 32.41"/><path class="cls-2" d="M25,129.7V105.25h9.13a10.36,10.36,0,0,1,4.19.66,4.89,4.89,0,0,1,2.29,2.33,7.83,7.83,0,0,1,.86,3.68,6.8,6.8,0,0,1-1.42,4.39,6.71,6.71,0,0,1-4.38,2.27,6.89,6.89,0,0,1,1.64,1.21,16.45,16.45,0,0,1,2.26,3.26l3.59,6.65H39.74L37,124.62c-.8-1.47-1.45-2.6-2-3.38a6.78,6.78,0,0,0-1.38-1.63,3.75,3.75,0,0,0-1.25-.65,6.69,6.69,0,0,0-1.51-.12H27.73V129.7ZM27.73,116h5.86a7.45,7.45,0,0,0,2.93-.46,3.21,3.21,0,0,0,1.6-1.46,4.52,4.52,0,0,0,.55-2.2,4,4,0,0,0-1.06-2.85A4.47,4.47,0,0,0,34.26,108H27.73Z" transform="translate(-22.38 -69.04)"/><path class="cls-2" d="M45.16,129.7V112.24H55.8v2.06H47.11v5.35h8.14v2H47.11v5.94h9v2.06Z" transform="translate(-22.38 -69.04)"/><path class="cls-2" d="M58.82,129.7V112.24h2L68.55,126V112.24h1.87V129.7h-2L60.68,116V129.7Z" transform="translate(-22.38 -69.04)"/><path class="cls-2" d="M72.07,129.7l5.66-17.46h2.09l6,17.46H83.63l-1.72-5.29H75.76l-1.62,5.29Zm4.25-7.17h5l-1.54-4.84c-.46-1.47-.81-2.67-1-3.62a26.51,26.51,0,0,1-.79,3.34Z" transform="translate(-22.38 -69.04)"/><path class="cls-2" d="M87.74,129.7V112.24h1.94V129.7Z" transform="translate(-22.38 -69.04)"/><path class="cls-2" d="M92.46,124.09l1.83-.19a5.47,5.47,0,0,0,.61,2.15,3.51,3.51,0,0,0,1.48,1.36,4.92,4.92,0,0,0,2.26.52,4.56,4.56,0,0,0,2-.4A2.76,2.76,0,0,0,102.3,125a2.64,2.64,0,0,0-.4-1.44,3.08,3.08,0,0,0-1.33-1,25.21,25.21,0,0,0-2.62-.85,11.81,11.81,0,0,1-2.84-1.09,4.19,4.19,0,0,1-1.57-1.62,4.53,4.53,0,0,1-.52-2.18,5.07,5.07,0,0,1,.63-2.47,4.13,4.13,0,0,1,1.85-1.75,6.15,6.15,0,0,1,2.7-.59,6.5,6.5,0,0,1,2.89.62,4.4,4.4,0,0,1,1.92,1.85,5.91,5.91,0,0,1,.72,2.75l-1.86.16a4,4,0,0,0-1-2.5,3.57,3.57,0,0,0-2.57-.84,3.67,3.67,0,0,0-2.58.76,2.5,2.5,0,0,0-.8,1.86,2.2,2.2,0,0,0,.57,1.55,7,7,0,0,0,2.94,1.24,17.93,17.93,0,0,1,3.25,1.11,4.71,4.71,0,0,1,1.9,1.79,4.88,4.88,0,0,1,.61,2.48,5.42,5.42,0,0,1-.67,2.63,4.67,4.67,0,0,1-1.93,1.91,5.82,5.82,0,0,1-2.84.69,7.32,7.32,0,0,1-3.35-.69,5.06,5.06,0,0,1-2.12-2.08A6.65,6.65,0,0,1,92.46,124.09Z" transform="translate(-22.38 -69.04)"/><path class="cls-2" d="M106.17,124.09l1.84-.19a5.47,5.47,0,0,0,.61,2.15,3.51,3.51,0,0,0,1.48,1.36,4.92,4.92,0,0,0,2.26.52,4.56,4.56,0,0,0,2-.4,2.78,2.78,0,0,0,1.27-1.08A2.85,2.85,0,0,0,116,125a2.56,2.56,0,0,0-.4-1.44,3.11,3.11,0,0,0-1.32-1,25.21,25.21,0,0,0-2.62-.85,11.92,11.92,0,0,1-2.85-1.09,4.34,4.34,0,0,1-1.57-1.62,4.64,4.64,0,0,1-.51-2.18,5.07,5.07,0,0,1,.63-2.47,4.13,4.13,0,0,1,1.85-1.75,6.15,6.15,0,0,1,2.7-.59,6.42,6.42,0,0,1,2.88.62,4.37,4.37,0,0,1,1.93,1.85,6,6,0,0,1,.72,2.75l-1.87.16a3.86,3.86,0,0,0-1-2.5A3.54,3.54,0,0,0,112,114a3.67,3.67,0,0,0-2.58.76,2.48,2.48,0,0,0-.81,1.86,2.16,2.16,0,0,0,.58,1.55,7,7,0,0,0,2.93,1.24,18.11,18.11,0,0,1,3.26,1.11,4.71,4.71,0,0,1,1.9,1.79,4.88,4.88,0,0,1,.61,2.48,5.42,5.42,0,0,1-.67,2.63,4.67,4.67,0,0,1-1.93,1.91,5.82,5.82,0,0,1-2.84.69,7.32,7.32,0,0,1-3.35-.69,5,5,0,0,1-2.12-2.08A6.77,6.77,0,0,1,106.17,124.09Z" transform="translate(-22.38 -69.04)"/><path class="cls-2" d="M118.94,129.7l5.65-17.46h2.1l6,17.46h-2.22l-1.71-5.29h-6.16L121,129.7Zm4.24-7.17h5l-1.53-4.84c-.47-1.47-.82-2.67-1-3.62a24.88,24.88,0,0,1-.79,3.34Z" transform="translate(-22.38 -69.04)"/><path class="cls-2" d="M134.25,129.7V112.24h2L144,126V112.24h1.86V129.7h-2L136.12,116V129.7Z" transform="translate(-22.38 -69.04)"/><path class="cls-2" d="M159.62,123.58l1.95.58a8.1,8.1,0,0,1-2.2,4.34,5.49,5.49,0,0,1-3.9,1.5,6.16,6.16,0,0,1-3.87-1.15,7.14,7.14,0,0,1-2.27-3.33,14,14,0,0,1-.77-4.68,12,12,0,0,1,.87-4.76,6.76,6.76,0,0,1,2.51-3.09,6.42,6.42,0,0,1,3.56-1,5.39,5.39,0,0,1,3.72,1.33,7.17,7.17,0,0,1,2.1,3.76l-1.92.53a5.55,5.55,0,0,0-1.49-2.77,3.51,3.51,0,0,0-2.45-.87,4.24,4.24,0,0,0-2.83,1,5.07,5.07,0,0,0-1.6,2.59,12.23,12.23,0,0,0-.47,3.36,12.63,12.63,0,0,0,.55,3.89,4.81,4.81,0,0,0,1.7,2.48,4.22,4.22,0,0,0,2.5.82,3.77,3.77,0,0,0,2.77-1.12A6,6,0,0,0,159.62,123.58Z" transform="translate(-22.38 -69.04)"/><path class="cls-2" d="M164,129.7V112.24h10.64v2.06H166v5.35h8.14v2H166v5.94h9v2.06Z" transform="translate(-22.38 -69.04)"/><path class="cls-2" d="M101.07,84.93a3.21,3.21,0,0,1-2.14.61h-.41V81.4a6.56,6.56,0,0,1,1.15-.13,2.07,2.07,0,0,1,1.54.58,2,2,0,0,1,.58,1.51A2,2,0,0,1,101.07,84.93Z" transform="translate(-22.38 -69.04)"/><path class="cls-2" d="M99.92,77.77A8.23,8.23,0,1,0,108.14,86,8.22,8.22,0,0,0,99.92,77.77Zm5.65,12.87h-2.65L99.56,86h-1v2.88a2,2,0,0,0,.21,1.17,1,1,0,0,0,.83.32H100v.27H95.69v-.27h.38A1,1,0,0,0,97,90a2.37,2.37,0,0,0,.15-1.08V82.47a2.11,2.11,0,0,0-.2-1.17,1.1,1.1,0,0,0-.85-.32h-.38v-.27h3.62a8.72,8.72,0,0,1,2.33.23,2.68,2.68,0,0,1,1.28.85,2.19,2.19,0,0,1,.52,1.48,2.27,2.27,0,0,1-.6,1.58,3.36,3.36,0,0,1-1.84,1l2,2.85a5.2,5.2,0,0,0,1.2,1.3,3.16,3.16,0,0,0,1.32.41Z" transform="translate(-22.38 -69.04)"/><path class="cls-1" d="M109.76,86a9.68,9.68,0,0,1-.52,3.15,9.84,9.84,0,1,1-18-7.73,8.61,8.61,0,0,1,.49-.83,4.15,4.15,0,0,1,.3-.43A9.84,9.84,0,0,1,109.76,86Z" transform="translate(-22.38 -69.04)"/><path class="cls-3" d="M71.71,92a.86.86,0,0,1-.1.16" transform="translate(-22.38 -69.04)"/><path class="cls-3" d="M71.83,92.14l-.22,0" transform="translate(-22.38 -69.04)"/><path class="cls-2" d="M82.07,81.89a4.36,4.36,0,0,0-.54,3.87,3.61,3.61,0,0,0,1.61,1.93c-.4.54-.62.86-.62.86-.3.45-.52.8-.69,1.08a12.31,12.31,0,0,0-1.2-1.26A3.67,3.67,0,0,0,75.05,88a9.14,9.14,0,0,0-1.85,1.71c-.33-.14-.72-.29-1.21-.45-1.62-.52-2.74-.88-4-.54-1.64.42-3.42,1.9-3.24,3.15.21,1.44,3,2.76,5,2.07a3.45,3.45,0,0,0,1.87-1.79,4.4,4.4,0,0,1-2.41-.37c-.54-.28-1.18-.85-1.08-1.26s.73-.57,1.26-.54c.93.06,1.43.87,2.33,2l.12.14c.18.23.38.48.61.73a11.11,11.11,0,0,0,3,2.52c1.52.8,4.13,1.39,6.12.27a3.45,3.45,0,0,0,1.27-1.17,13.56,13.56,0,0,0,1.07,1.08c1.39,1.26,2.1,1.34,2.43,1.35a3.54,3.54,0,0,0,2.52-1.35A5.2,5.2,0,0,0,90,92.24a6.26,6.26,0,0,0-.62-2.79l1.23-.29a9.85,9.85,0,0,1,.61-7.74,8.61,8.61,0,0,1,.49-.83,4.15,4.15,0,0,1,.3-.43C89.46,79.2,83.26,80.25,82.07,81.89Zm-5.85,9.18c-.24-.06-.45-.13-.64-.19a6.13,6.13,0,0,0,.82-.53,2.21,2.21,0,0,1,1.26-.54,2.46,2.46,0,0,1,1.62.63,8.46,8.46,0,0,1,.93.85A6.88,6.88,0,0,1,76.22,91.07ZM87.65,94.4c-.47.43-2-.5-2.34-.72A6.11,6.11,0,0,1,84,92.55a7.21,7.21,0,0,1,1-1.12,5.41,5.41,0,0,1,1.29-.9C87.32,92,88.15,93.94,87.65,94.4Zm-1.82-9.67c-.82-1-1.35-1.75-1.06-2.39.2-.43,3.15-1,5.75-.94C89,82.45,87.08,83.75,85.83,84.73Z" transform="translate(-22.38 -69.04)"/><path class="cls-2" d="M134,90.08c-.83-1.14-2.6-1-3.6-.84a8.51,8.51,0,0,0-3.18,1.18,22.93,22.93,0,0,0-1.86-1.9c-1.22-1.1-1.83-1.64-2.28-1.68-1.33-.11-3,1.25-4.67,3.14l-.61-.74c-.25-.31-.48-.59-.68-.85a4,4,0,0,0,1-1.31,4.63,4.63,0,0,0-.24-4.8c-1-1.25-7.87-1.89-9.68-1.54A9.81,9.81,0,0,1,109.76,86a9.68,9.68,0,0,1-.52,3.15,14.6,14.6,0,0,1,3.94,1c-1.34.42-2.51.91-2.94,2.12a4.24,4.24,0,0,0,2.28,4.92c1.39.45,2.86-.59,3.72-1.2a8.76,8.76,0,0,0,1.23-1,5.63,5.63,0,0,0,1.17.93,5.79,5.79,0,0,0,4.08,1c2-.44,4.09-2.54,5.47-4.13a5.35,5.35,0,0,0,2.69,1.25,3.3,3.3,0,0,0,2.88-.6A2.63,2.63,0,0,0,134,90.08Zm-22.65-7.72a20.84,20.84,0,0,1,3.69,2.2,6.18,6.18,0,0,1,.62,2,19,19,0,0,0-1.94-2.22A19.93,19.93,0,0,0,111.35,82.36ZM115,94c-.26.33-.8,1-1.44,1a1.62,1.62,0,0,1-1.2-1.8c.15-.52.72-.67,1.2-1a3.69,3.69,0,0,0,1.09-1.07A8.43,8.43,0,0,1,116,92.83Zm5.76-1.8a2,2,0,0,1-1-.64,3.4,3.4,0,0,1,2-1.52,4.28,4.28,0,0,1,2,.12,6.28,6.28,0,0,1,2,.77C123.35,92.07,122,92.61,120.8,92.24Zm10.44-.48a1.45,1.45,0,0,1-1.32.84,1.62,1.62,0,0,1-1.23-.52l.27-.32c.42-.5,1.1-1.36,1.68-1.2A1.05,1.05,0,0,1,131.24,91.76Z" transform="translate(-22.38 -69.04)"/></svg>