<svg width="22" height="24" viewBox="0 0 22 24" fill="none" xmlns="http://www.w3.org/2000/svg">
<path d="M19.1221 2.99994H2.37791C1.47884 2.99994 0.75 3.85857 0.75 4.91775V21.0821C0.75 22.1413 1.47884 22.9999 2.37791 22.9999H19.1221C20.0212 22.9999 20.75 22.1413 20.75 21.0821V4.91775C20.75 3.85857 20.0212 2.99994 19.1221 2.99994Z" stroke="white" stroke-width="1.5" stroke-miterlimit="10"/>
<path d="M20.7508 7.87878H0.749268" stroke="white" stroke-width="1.5" stroke-miterlimit="10"/>
<path d="M15.75 14H12.75C12.1977 14 11.75 14.4477 11.75 15V18C11.75 18.5523 12.1977 19 12.75 19H15.75C16.3023 19 16.75 18.5523 16.75 18V15C16.75 14.4477 16.3023 14 15.75 14Z" stroke="white" stroke-width="1.5"/>
<line x1="5" y1="2.90912" x2="5" y2="2.76566e-05" stroke="white" stroke-width="1.5"/>
<line x1="17.0909" y1="2.90912" x2="17.0909" y2="2.76566e-05" stroke="white" stroke-width="1.5"/>
</svg>
