<svg width="26" height="15" viewBox="0 0 26 15" fill="none" xmlns="http://www.w3.org/2000/svg">
<path d="M25 5.36364H13.7636C12.8909 2.85455 10.4909 1 7.54545 1C3.94545 1 1 3.94545 1 7.54545C1 11.1455 3.94545 14.0909 7.54545 14.0909C10.3818 14.0909 12.7818 12.2364 13.7636 9.72727H18.4545V13H22.8182V9.72727H25V5.36364Z" stroke="#418C41" stroke-width="1.5" stroke-miterlimit="10"/>
<path d="M7.54547 5.36328C6.96681 5.36328 6.41186 5.59315 6.00269 6.00232C5.59352 6.41149 5.36365 6.96645 5.36365 7.5451C5.36365 8.12375 5.59352 8.67871 6.00269 9.08788C6.41186 9.49705 6.96681 9.72692 7.54547 9.72692C8.12412 9.72692 8.67907 9.49705 9.08824 9.08788C9.49741 8.67871 9.72728 8.12375 9.72728 7.5451C9.72728 6.96645 9.49741 6.41149 9.08824 6.00232C8.67907 5.59315 8.12412 5.36328 7.54547 5.36328Z" stroke="#418C41" stroke-width="1.5" stroke-miterlimit="10"/>
</svg>
