<svg width="22" height="22" viewBox="0 0 22 22" fill="none" xmlns="http://www.w3.org/2000/svg">
<path d="M11 14.999C13.2091 14.999 15 13.2082 15 10.999C15 8.78988 13.2091 6.99902 11 6.99902C8.79086 6.99902 7 8.78988 7 10.999C7 13.2082 8.79086 14.999 11 14.999Z" stroke="#418C41" stroke-width="1.5" stroke-linecap="round" stroke-linejoin="round"/>
<path d="M15 6.99938V11.9994C15 12.795 15.3161 13.5581 15.8787 14.1207C16.4413 14.6833 17.2044 14.9994 18 14.9994C18.7957 14.9994 19.5587 14.6833 20.1213 14.1207C20.6839 13.5581 21 12.795 21 11.9994V10.9994C20.9999 8.74241 20.2362 6.55186 18.8333 4.78391C17.4303 3.01596 15.4706 1.7746 13.2726 1.26168C11.0747 0.748749 8.76794 0.994421 6.72736 1.95875C4.68677 2.92307 3.03241 4.54933 2.03327 6.5731C1.03413 8.59687 0.748975 10.8991 1.22418 13.1055C1.69938 15.3119 2.90699 17.2926 4.65064 18.7256C6.39429 20.1587 8.57144 20.9597 10.8281 20.9985C13.0847 21.0373 15.2881 20.3116 17.08 18.9394" stroke="#418C41" stroke-width="1.5" stroke-linecap="round" stroke-linejoin="round"/>
</svg>
