<svg width="47" height="21" viewBox="0 0 47 21" fill="none" xmlns="http://www.w3.org/2000/svg">
<path d="M36.1402 1.00001H10.4302C8.76649 0.998204 7.13198 1.43706 5.69291 2.27193C4.25385 3.1068 3.06156 4.30791 2.23731 5.75309C1.41307 7.19828 0.986273 8.83598 1.00034 10.4996C1.0144 12.1633 1.46882 13.7935 2.31738 15.2246C3.16593 16.6556 4.37836 17.8364 5.83134 18.6468C7.28431 19.4572 8.92601 19.8684 10.5894 19.8385C12.2529 19.8085 13.8787 19.3386 15.3016 18.4764C16.7245 17.6143 17.8937 16.3906 18.6902 14.93H27.8802C28.6767 16.3906 29.8459 17.6143 31.2688 18.4764C32.6917 19.3386 34.3175 19.8085 35.981 19.8385C37.6444 19.8684 39.2861 19.4572 40.7391 18.6468C42.192 17.8364 43.4045 16.6556 44.253 15.2246C45.1016 13.7935 45.556 12.1633 45.5701 10.4996C45.5841 8.83598 45.1573 7.19828 44.3331 5.75309C43.5088 4.30791 42.3166 3.1068 40.8775 2.27193C39.4384 1.43706 37.8039 0.998204 36.1402 1.00001V1.00001Z" stroke="#53B253" stroke-width="1.5" stroke-miterlimit="10"/>
<path d="M41.2302 12.12C42.1691 12.12 42.9302 11.3589 42.9302 10.42C42.9302 9.48109 42.1691 8.71997 41.2302 8.71997C40.2913 8.71997 39.5302 9.48109 39.5302 10.42C39.5302 11.3589 40.2913 12.12 41.2302 12.12Z" stroke="#53B253"/>
<path d="M33.1802 12.12C34.119 12.12 34.8802 11.3589 34.8802 10.42C34.8802 9.48109 34.119 8.71997 33.1802 8.71997C32.2413 8.71997 31.4802 9.48109 31.4802 10.42C31.4802 11.3589 32.2413 12.12 33.1802 12.12Z" stroke="#53B253"/>
<path d="M37.1902 16.02C38.1291 16.02 38.8902 15.2589 38.8902 14.32C38.8902 13.3811 38.1291 12.62 37.1902 12.62C36.2513 12.62 35.4902 13.3811 35.4902 14.32C35.4902 15.2589 36.2513 16.02 37.1902 16.02Z" stroke="#53B253"/>
<path d="M37.1902 8.12998C38.1291 8.12998 38.8902 7.36886 38.8902 6.42998C38.8902 5.4911 38.1291 4.72998 37.1902 4.72998C36.2513 4.72998 35.4902 5.4911 35.4902 6.42998C35.4902 7.36886 36.2513 8.12998 37.1902 8.12998Z" stroke="#53B253"/>
<path d="M8.21246 6.03009V5.53009H7.71246V6.03009H8.21246ZM8.21246 9.02224V9.52224H8.71246V9.02224H8.21246ZM10.997 6.03009H11.497V5.53009H10.997V6.03009ZM10.997 9.02224H10.497V9.52224H10.997V9.02224ZM14 9.02224H14.5V8.52224H14V9.02224ZM14 11.8068V12.3068H14.5V11.8068H14ZM10.997 11.8068V11.3068H10.497V11.8068H10.997ZM10.997 14.8097V15.3097H11.497V14.8097H10.997ZM8.21246 14.8097H7.71246V15.3097H8.21246V14.8097ZM8.21246 11.8068H8.71246V11.3068H8.21246V11.8068ZM5.2204 11.8068H4.7204V12.3068H5.2204V11.8068ZM5.2204 9.02224V8.52224H4.7204V9.02224H5.2204ZM7.71246 6.03009V9.02224H8.71246V6.03009H7.71246ZM10.997 5.53009H8.21246V6.53009H10.997V5.53009ZM11.497 9.02224V6.03009H10.497V9.02224H11.497ZM14 8.52224H10.997V9.52224H14V8.52224ZM14.5 11.8068V9.02224H13.5V11.8068H14.5ZM10.997 12.3068H14V11.3068H10.997V12.3068ZM11.497 14.8097V11.8068H10.497V14.8097H11.497ZM8.21246 15.3097H10.997V14.3097H8.21246V15.3097ZM7.71246 11.8068V14.8097H8.71246V11.8068H7.71246ZM5.2204 12.3068H8.21246V11.3068H5.2204V12.3068ZM4.7204 9.02224V11.8068H5.7204V9.02224H4.7204ZM8.21246 8.52224H5.2204V9.52224H8.21246V8.52224Z" fill="#53B253"/>
<line x1="18" y1="11.25" x2="22" y2="11.25" stroke="#53B253" stroke-width="1.5"/>
<line x1="24" y1="11.25" x2="28" y2="11.25" stroke="#53B253" stroke-width="1.5"/>
</svg>
