<svg width="49" height="24" viewBox="0 0 49 24" fill="none" xmlns="http://www.w3.org/2000/svg">
<path d="M5.46 14.5599H2.12C1.82468 14.56 1.54131 14.4433 1.33156 14.2354C1.1218 14.0276 1.00264 13.7452 1 13.4499V10.5499C1.00264 10.2546 1.1218 9.97232 1.33156 9.76444C1.54131 9.55656 1.82468 9.43993 2.12 9.43994H5.46" stroke="#53B253" stroke-width="1.5" stroke-linejoin="round"/>
<path d="M32.26 14.5601H17" stroke="#53B253" stroke-width="1.5" stroke-linejoin="round"/>
<path d="M43.8 9.43994H46.55C46.8453 9.43993 47.1287 9.55656 47.3384 9.76444C47.5482 9.97232 47.6674 10.2546 47.67 10.5499V13.4499C47.6674 13.7452 47.5482 14.0276 47.3384 14.2354C47.1287 14.4433 46.8453 14.56 46.55 14.5599H43.8" stroke="#53B253" stroke-width="1.5" stroke-linejoin="round"/>
<path d="M17 9.43994H32.26" stroke="#53B253" stroke-width="1.5" stroke-linejoin="round"/>
<path d="M15.17 1H12.5C11.4893 1 10.67 1.81932 10.67 2.83V21.17C10.67 22.1807 11.4893 23 12.5 23H15.17C16.1807 23 17 22.1807 17 21.17V2.83C17 1.81932 16.1807 1 15.17 1Z" stroke="#53B253" stroke-width="1.5" stroke-miterlimit="10"/>
<path d="M8.84002 3.79004H7.29002C6.27934 3.79004 5.46002 4.60936 5.46002 5.62004V18.38C5.46002 19.3907 6.27934 20.21 7.29002 20.21H8.84002C9.8507 20.21 10.67 19.3907 10.67 18.38V5.62004C10.67 4.60936 9.8507 3.79004 8.84002 3.79004Z" stroke="#53B253" stroke-width="1.5" stroke-miterlimit="10"/>
<path d="M34.1 23H36.77C37.7807 23 38.6 22.1807 38.6 21.17V2.83C38.6 1.81932 37.7807 1 36.77 1H34.1C33.0893 1 32.27 1.81932 32.27 2.83V21.17C32.27 22.1807 33.0893 23 34.1 23Z" stroke="#53B253" stroke-width="1.5" stroke-miterlimit="10"/>
<path d="M40.42 20.21H41.97C42.9807 20.21 43.8 19.3906 43.8 18.38V5.61996C43.8 4.60928 42.9807 3.78996 41.97 3.78996H40.42C39.4093 3.78996 38.59 4.60928 38.59 5.61996V18.38C38.59 19.3906 39.4093 20.21 40.42 20.21Z" stroke="#53B253" stroke-width="1.5" stroke-miterlimit="10"/>
</svg>
