<svg width="22" height="22" viewBox="0 0 22 22" fill="none" xmlns="http://www.w3.org/2000/svg">
<path d="M9.55423 5.24101L6.17123 1.33601C5.78123 0.886007 5.06623 0.888007 4.61323 1.34201L1.83123 4.12901C1.00323 4.95801 0.766232 6.18901 1.24523 7.17601C4.10685 13.101 8.88528 17.8861 14.8062 20.756C15.7922 21.235 17.0222 20.998 17.8502 20.169L20.6582 17.356C21.1132 16.901 21.1142 16.182 20.6602 15.792L16.7402 12.427C16.3302 12.075 15.6932 12.121 15.2822 12.533L13.9182 13.899C13.8484 13.9722 13.7565 14.0204 13.6566 14.0363C13.5567 14.0522 13.4543 14.0349 13.3652 13.987C11.1357 12.7031 9.28622 10.8512 8.00523 8.62001C7.95726 8.53076 7.93989 8.42823 7.95578 8.32816C7.97168 8.22809 8.01996 8.136 8.09323 8.06601L9.45323 6.70501C9.86523 6.29101 9.91023 5.65101 9.55423 5.24001V5.24101Z" stroke="#418C41" stroke-width="1.5" stroke-linecap="round" stroke-linejoin="round"/>
</svg>
