<svg width="47" height="43" viewBox="0 0 47 43" fill="none" xmlns="http://www.w3.org/2000/svg">
<path d="M11.25 28.48C11.96 26.48 13.63 25.75 15.78 25.33C16.246 25.2493 16.702 25.1185 17.14 24.94C18.201 24.4483 19.1355 23.7206 19.8721 22.8124C20.6087 21.9042 21.1279 20.8396 21.39 19.7C22.1849 16.5963 22.7465 13.4375 23.07 10.25C23.0879 10.185 23.0925 10.117 23.0834 10.0501C23.0743 9.98329 23.0519 9.91897 23.0173 9.86105C22.9827 9.80313 22.9368 9.7528 22.8823 9.71309C22.8277 9.67338 22.7657 9.64512 22.7 9.63C19.95 8.63 17.2 7.63 14.43 6.63C14.3698 6.59973 14.3042 6.58193 14.237 6.57767C14.1698 6.5734 14.1024 6.58275 14.0389 6.60517C13.9754 6.62758 13.9171 6.66259 13.8674 6.7081C13.8178 6.75361 13.7778 6.80868 13.75 6.87C11.9958 9.54339 10.4319 12.337 9.07 15.23C8.24804 16.9349 8.04988 18.8741 8.51 20.71C8.78018 21.6708 9.25046 22.5637 9.89 23.33C10.5248 24.0049 10.9815 24.8273 11.2189 25.723C11.4564 26.6186 11.467 27.5592 11.25 28.46L8.07 37.44C5.78089 38.1957 3.31723 38.2445 1 37.58L13.44 42.04C13.44 42.04 9.16 39.82 8.07 37.44" stroke="#53B253" stroke-width="1.5" stroke-linejoin="round"/>
<path d="M35.5401 28.48C34.8301 26.48 33.1601 25.75 31.0101 25.33C30.544 25.2493 30.0881 25.1185 29.6501 24.94C28.5891 24.4483 27.6546 23.7206 26.918 22.8124C26.1813 21.9042 25.6621 20.8396 25.4001 19.7C24.6119 16.5958 24.057 13.437 23.7401 10.25C23.7025 10.124 23.7161 9.98833 23.7779 9.8723C23.8396 9.75626 23.9446 9.66922 24.0701 9.63C26.8201 8.63 29.5701 7.63 32.3401 6.63C32.4002 6.59973 32.4659 6.58193 32.5331 6.57767C32.6003 6.5734 32.6677 6.58275 32.7312 6.60517C32.7947 6.62758 32.853 6.66259 32.9026 6.7081C32.9523 6.75361 32.9922 6.80868 33.0201 6.87C34.7983 9.54132 36.3856 12.3349 37.7701 15.23C38.592 16.9349 38.7902 18.8741 38.3301 20.71C38.0446 21.6728 37.5609 22.5652 36.9101 23.33C36.272 24.003 35.8124 24.8249 35.5731 25.7209C35.3338 26.6169 35.3225 27.5585 35.5401 28.46L38.7501 37.46C41.0392 38.2157 43.5028 38.2645 45.8201 37.6L33.3801 42.04C33.3801 42.04 37.6301 39.82 38.7501 37.44" stroke="#53B253" stroke-width="1.5" stroke-linejoin="round"/>
<path d="M17.86 3.82996L20.67 6.37996" stroke="#53B253" stroke-width="1.5" stroke-linecap="round" stroke-linejoin="round"/>
<path d="M28.28 3.82996L25.47 6.37996" stroke="#53B253" stroke-width="1.5" stroke-linecap="round" stroke-linejoin="round"/>
<path d="M23.0699 5.58V1" stroke="#53B253" stroke-width="1.5" stroke-linecap="round" stroke-linejoin="round"/>
</svg>
