<svg width="55" height="36" viewBox="0 0 55 36" fill="none" xmlns="http://www.w3.org/2000/svg">
<path d="M2.13612 11.2356H31.0831C31.2323 11.2356 31.38 11.2643 31.5178 11.32C31.6557 11.3757 31.7809 11.4573 31.8864 11.5603C31.9919 11.6632 32.0756 11.7854 32.1327 11.9199C32.1898 12.0544 32.2192 12.1986 32.2192 12.3442V22.852H1V12.3442C1 12.0502 1.1197 11.7682 1.33276 11.5603C1.54583 11.3524 1.8348 11.2356 2.13612 11.2356V11.2356Z" stroke="#53B253" stroke-width="1.5" stroke-miterlimit="10"/>
<path d="M52.1149 29.5832L42.3037 2.15162C42.0763 1.5156 41.3762 1.18441 40.7402 1.41189L31.7115 4.64107C31.0755 4.86855 30.7443 5.56855 30.9718 6.20458L40.7829 33.6361C41.0104 34.2722 41.7104 34.6034 42.3464 34.3759L51.3751 31.1467C52.0111 30.9192 52.3423 30.2192 52.1149 29.5832Z" stroke="#53B253" stroke-width="1.5" stroke-miterlimit="10"/>
<path d="M1 22.8521H32.2192V34.0155C32.2192 34.1703 32.1898 34.3236 32.1327 34.4667C32.0755 34.6097 31.9918 34.7397 31.8863 34.8492C31.7807 34.9587 31.6555 35.0455 31.5176 35.1048C31.3797 35.164 31.2319 35.1945 31.0826 35.1945H2.13656C1.98731 35.1945 1.83951 35.164 1.70162 35.1048C1.56372 35.0455 1.43843 34.9587 1.33289 34.8492C1.22735 34.7397 1.14363 34.6097 1.08652 34.4667C1.0294 34.3236 1 34.1703 1 34.0155V22.8521V22.8521Z" stroke="#53B253" stroke-width="1.5" stroke-miterlimit="10"/>
<path d="M4.63013 11.2356V8.56639C4.63013 8.31154 4.72243 8.06712 4.88673 7.88692C5.05103 7.70671 5.27387 7.60547 5.50623 7.60547H8.11019C8.34255 7.60547 8.56539 7.70671 8.72969 7.88692C8.89399 8.06712 8.98629 8.31154 8.98629 8.56639V11.2356" stroke="#53B253" stroke-width="1.5" stroke-miterlimit="10"/>
<path d="M14.7945 11.2356V8.56639C14.7945 8.31154 14.8868 8.06712 15.0511 7.88692C15.2154 7.70671 15.4382 7.60547 15.6706 7.60547H18.2746C18.5069 7.60547 18.7298 7.70671 18.8941 7.88692C19.0584 8.06712 19.1507 8.31154 19.1507 8.56639V11.2356" stroke="#53B253" stroke-width="1.5" stroke-miterlimit="10"/>
<path d="M24.2328 11.2356V8.56639C24.2328 8.31154 24.3252 8.06712 24.4895 7.88692C24.6538 7.70671 24.8766 7.60547 25.1089 7.60547H27.7129C27.9453 7.60547 28.1681 7.70671 28.3324 7.88692C28.4967 8.06712 28.589 8.31154 28.589 8.56639V11.2356" stroke="#53B253" stroke-width="1.5" stroke-miterlimit="10"/>
<path d="M43.1096 3.39065L45.3863 2.57527C45.4974 2.53554 45.6152 2.51831 45.7329 2.52457C45.8506 2.53082 45.9659 2.56043 46.0723 2.61171C46.1786 2.66298 46.2738 2.73491 46.3526 2.82337C46.4313 2.91183 46.4919 3.01509 46.5309 3.12722L47.4143 5.63606C47.4537 5.74807 47.4707 5.86681 47.4645 5.98549C47.4583 6.10417 47.429 6.22045 47.3781 6.32766C47.3273 6.43487 47.2559 6.53091 47.1682 6.61027C47.0805 6.68963 46.978 6.75075 46.8668 6.79013L44.5652 7.60551" stroke="#53B253" stroke-width="1.5" stroke-miterlimit="10"/>
<path d="M46.0137 12.8365L48.3081 12.0101C48.5306 11.9334 48.7739 11.9481 48.986 12.0511C49.198 12.154 49.362 12.337 49.4429 12.5611L50.3187 15.0654C50.3578 15.1772 50.3748 15.2957 50.3686 15.4142C50.3625 15.5326 50.3333 15.6487 50.2829 15.7557C50.2325 15.8627 50.1618 15.9586 50.0748 16.0378C49.9878 16.1171 49.8862 16.1781 49.776 16.2174L47.4939 17.0438" stroke="#53B253" stroke-width="1.5" stroke-miterlimit="10"/>
<path d="M49.6439 22.282L51.9383 21.452C52.0484 21.4122 52.1652 21.3949 52.2819 21.4012C52.3986 21.4075 52.5129 21.4372 52.6183 21.4886C52.7238 21.54 52.8182 21.6121 52.8962 21.7008C52.9743 21.7894 53.0344 21.893 53.0731 22.0054L53.9489 24.5204C53.988 24.6327 54.0049 24.7517 53.9988 24.8707C53.9926 24.9897 53.9635 25.1062 53.9131 25.2137C53.8627 25.3212 53.7919 25.4175 53.705 25.497C53.618 25.5766 53.5164 25.6379 53.4062 25.6773L51.1241 26.4822" stroke="#53B253" stroke-width="1.5" stroke-miterlimit="10"/>
</svg>
