<svg width="83" height="83" viewBox="0 0 83 83" fill="none" xmlns="http://www.w3.org/2000/svg">
<path d="M44.6274 41.6533H54.3003C61.1803 41.6533 67.7785 44.3735 72.6434 49.2154C77.5082 54.0573 80.2413 60.6243 80.2413 67.4718V80.2497H18.6863V67.4718C18.6863 60.6243 21.4194 54.0573 26.2843 49.2154C31.1492 44.3735 37.7474 41.6533 44.6274 41.6533V41.6533Z" stroke="#4DA64D" stroke-width="4" stroke-miterlimit="10"/>
<path d="M49.0241 35.1325C58.0088 35.1325 65.2922 27.8834 65.2922 18.9412C65.2922 9.99907 58.0088 2.75 49.0241 2.75C40.0395 2.75 32.756 9.99907 32.756 18.9412C32.756 27.8834 40.0395 35.1325 49.0241 35.1325Z" stroke="#4DA64D" stroke-width="4" stroke-miterlimit="10"/>
<path d="M14.4039 20.4736V44.7605" stroke="#4DA64D" stroke-width="4" stroke-miterlimit="10" stroke-linecap="round"/>
<path d="M26.6005 32.6211H2.19839" stroke="#4DA64D" stroke-width="4" stroke-miterlimit="10" stroke-linecap="round"/>
</svg>
