<svg width="63" height="67" viewBox="0 0 63 67" fill="none" xmlns="http://www.w3.org/2000/svg">
<path d="M43.1495 9.00342C48.917 11.7236 53.5991 16.3793 56.417 22.1959C59.2348 28.0125 60.0185 34.6395 58.6376 40.9744C57.2567 47.3093 53.7946 52.9702 48.8271 57.0155C43.8596 61.0607 37.6862 63.2465 31.3339 63.2091C24.9816 63.1717 18.8333 60.9134 13.9117 56.8099C8.99018 52.7064 5.59212 47.0051 4.2828 40.6544C2.97348 34.3037 3.83185 27.6864 6.7151 21.9033C9.59835 16.1202 14.3327 11.52 20.1305 8.86792" stroke="#53B253" stroke-width="7" stroke-linejoin="round"/>
<path d="M31.4633 0V36.0144" stroke="#53B253" stroke-width="7" stroke-linejoin="round"/>
<path d="M31.4633 49.881C34.1085 49.881 36.2528 47.6902 36.2528 44.9877C36.2528 42.2853 34.1085 40.0945 31.4633 40.0945C28.8181 40.0945 26.6738 42.2853 26.6738 44.9877C26.6738 47.6902 28.8181 49.881 31.4633 49.881Z" fill="#53B253"/>
</svg>
