<svg width="90" height="86" viewBox="0 0 90 86" fill="none" xmlns="http://www.w3.org/2000/svg">
<path d="M82 11H8C4.68629 11 2 13.6863 2 17V78C2 81.3137 4.68629 84 8 84H82C85.3137 84 88 81.3137 88 78V17C88 13.6863 85.3137 11 82 11Z" stroke="#53B253" stroke-width="4" stroke-miterlimit="10"/>
<path d="M88 28H2" stroke="#53B253" stroke-width="4" stroke-miterlimit="10"/>
<path d="M14 53H17V56H14V53Z" stroke="#53B253" stroke-width="4"/>
<path d="M14 66H17V69H14V66Z" stroke="#53B253" stroke-width="4"/>
<path d="M14 40H17V43H14V40Z" stroke="#53B253" stroke-width="4"/>
<path d="M73 53H76V56H73V53Z" stroke="#53B253" stroke-width="4"/>
<path d="M73 66H76V69H73V66Z" stroke="#53B253" stroke-width="4"/>
<path d="M73 40H76V43H73V40Z" stroke="#53B253" stroke-width="4"/>
<path d="M43 53H46V56H43V53Z" stroke="#53B253" stroke-width="4"/>
<path d="M43 66H46V69H43V66Z" stroke="#53B253" stroke-width="4"/>
<path d="M43 40H46V43H43V40Z" stroke="#53B253" stroke-width="4"/>
<path d="M28 53H31V56H28V53Z" stroke="#53B253" stroke-width="4"/>
<path d="M28 66H31V69H28V66Z" stroke="#53B253" stroke-width="4"/>
<path d="M28 40H31V43H28V40Z" stroke="#53B253" stroke-width="4"/>
<path d="M58 53H61V56H58V53Z" stroke="#53B253" stroke-width="4"/>
<path d="M58 66H61V69H58V66Z" stroke="#53B253" stroke-width="4"/>
<path d="M58 40H61V43H58V40Z" stroke="#53B253" stroke-width="4"/>
<path d="M14 2H17V11H14V2Z" stroke="#53B253" stroke-width="4"/>
<path d="M73 2H76V11H73V2Z" stroke="#53B253" stroke-width="4"/>
</svg>
