<svg width="48" height="31" viewBox="0 0 48 31" fill="none" xmlns="http://www.w3.org/2000/svg">
<path d="M46.77 1H1V29.33H46.77V1Z" stroke="#53B253" stroke-width="1.5" stroke-miterlimit="10"/>
<path d="M23.88 1V29.33" stroke="#53B253" stroke-width="1.5" stroke-miterlimit="10"/>
<path d="M23.88 23C28.2044 23 31.71 19.4944 31.71 15.17C31.71 10.8456 28.2044 7.33997 23.88 7.33997C19.5556 7.33997 16.05 10.8456 16.05 15.17C16.05 19.4944 19.5556 23 23.88 23Z" stroke="#53B253" stroke-width="1.5" stroke-miterlimit="10"/>
<path d="M8.29 7.32996H1V23H8.29V7.32996Z" stroke="#53B253" stroke-width="1.5" stroke-miterlimit="10"/>
<path d="M46.77 7.32996H39.48V23H46.77V7.32996Z" stroke="#53B253" stroke-width="1.5" stroke-miterlimit="10"/>
<path d="M8.43003 9.55005C9.36285 10.178 10.1246 11.0285 10.6463 12.0246C11.1681 13.0208 11.4336 14.1312 11.4187 15.2556C11.4038 16.38 11.1091 17.483 10.5611 18.465C10.0131 19.447 9.22915 20.277 8.28003 20.88" stroke="#53B253" stroke-width="1.5" stroke-miterlimit="10"/>
<path d="M39.33 9.55005C38.3972 10.178 37.6355 11.0285 37.1137 12.0246C36.5919 13.0208 36.3265 14.1312 36.3414 15.2556C36.3562 16.38 36.651 17.483 37.199 18.465C37.7469 19.447 38.5309 20.277 39.48 20.88" stroke="#53B253" stroke-width="1.5" stroke-miterlimit="10"/>
</svg>
