<svg width="46" height="48" viewBox="0 0 46 48" fill="none" xmlns="http://www.w3.org/2000/svg">
<path d="M22.4901 31.8C27.0438 31.8 31.4111 29.991 34.6311 26.771C37.8511 23.551 39.6601 19.1838 39.6601 14.63H5.32007C5.32007 19.1838 7.12905 23.551 10.349 26.771C13.569 29.991 17.9363 31.8 22.4901 31.8V31.8Z" stroke="#53B253" stroke-width="1.5" stroke-linecap="round" stroke-linejoin="round"/>
<path d="M13.2201 29.5699L5.32007 46.2599" stroke="#53B253" stroke-width="1.5" stroke-linecap="round" stroke-linejoin="round"/>
<path d="M31.79 29.62L39.66 46.26" stroke="#53B253" stroke-width="1.5" stroke-linecap="round" stroke-linejoin="round"/>
<path d="M9.82007 37.73H35.1701" stroke="#53B253" stroke-width="1.5" stroke-linecap="round" stroke-linejoin="round"/>
<path d="M20.1701 10.64C20.1701 10.64 18.8701 8.05 20.1701 5.93C20.1701 5.93 22.3201 2.86 19.8801 1" stroke="#53B253" stroke-linecap="round" stroke-linejoin="round"/>
<path d="M16.71 10.64C16.71 10.64 15.41 8.05 16.71 5.93C16.71 5.93 18.86 2.86 16.42 1" stroke="#53B253" stroke-linecap="round" stroke-linejoin="round"/>
<path d="M23.63 10.64C23.63 10.64 22.34 8.05 23.63 5.93C23.63 5.93 25.78 2.86 23.35 1" stroke="#53B253" stroke-linecap="round" stroke-linejoin="round"/>
<path d="M27.1601 10.64C27.1601 10.64 25.8601 8.05 27.1601 5.93C27.1601 5.93 29.3101 2.86 26.8701 1" stroke="#53B253" stroke-linecap="round" stroke-linejoin="round"/>
<path d="M5.32 19.13H1" stroke="#53B253" stroke-width="1.5" stroke-linecap="round" stroke-linejoin="round"/>
<path d="M44.4399 19.13H39.4299" stroke="#53B253" stroke-width="1.5" stroke-linecap="round" stroke-linejoin="round"/>
</svg>
