<svg id="Camada_1" data-name="Camada 1" xmlns="http://www.w3.org/2000/svg" viewBox="0 0 24 18.02"><defs><style>.cls-1{fill:#008d38;}</style></defs><path class="cls-1" d="M13.56,3.14a10.84,10.84,0,0,0-2.92,0C4.32,4.15.78,10.44,0,11.91c.39.91,3.46,7.84,10,9a11.33,11.33,0,0,0,4.23-.09c6.43-1.39,9.34-8,9.76-9C23.38,10.59,19.94,4,13.56,3.14ZM13.39,19a9.51,9.51,0,0,1-2.7-.09C5.62,18,2.83,13.23,2.13,12c.78-1.31,3.85-6.17,9-6.84a8.93,8.93,0,0,1,2.34,0c5.06.7,7.8,5.74,8.37,6.84C21.36,12.87,18.6,18.35,13.39,19Z" transform="translate(0 -3.06)"/><path class="cls-1" d="M12,8.19a3.89,3.89,0,1,0,3.89,3.89A3.89,3.89,0,0,0,12,8.19ZM12,14a2,2,0,1,1,2-2A2,2,0,0,1,12,14Z" transform="translate(0 -3.06)"/></svg>