<svg width="23" height="25" viewBox="0 0 23 25" fill="none" xmlns="http://www.w3.org/2000/svg">
<path d="M10.7427 1.2865L1.39564 9.41221C1.27012 9.51969 1.16965 9.65342 1.10131 9.80398C1.03296 9.95453 0.998401 10.1183 1.00006 10.2836V22.8683C1.00006 23.1684 1.11914 23.4563 1.3311 23.6685C1.54306 23.8808 1.83054 24 2.1303 24H7.09206C7.39182 24 7.6793 23.8808 7.89126 23.6685C8.10322 23.4563 8.2223 23.1684 8.2223 22.8683V15.9082C8.2223 15.6081 8.34138 15.3202 8.55334 15.108C8.7653 14.8958 9.05278 14.7765 9.35254 14.7765H13.557C13.8568 14.7765 14.1443 14.8958 14.3562 15.108C14.5682 15.3202 14.6873 15.6081 14.6873 15.9082V22.8683C14.6873 23.1684 14.8064 23.4563 15.0183 23.6685C15.2303 23.8808 15.5178 24 15.8175 24H20.8697C21.1695 24 21.4569 23.8808 21.6689 23.6685C21.8809 23.4563 21.9999 23.1684 21.9999 22.8683V10.2836C22.0016 10.1183 21.967 9.95453 21.8987 9.80398C21.8303 9.65342 21.7299 9.51969 21.6044 9.41221L12.246 1.2865C12.039 1.10196 11.7715 1 11.4943 1C11.2172 1 10.9497 1.10196 10.7427 1.2865V1.2865Z" stroke="white" stroke-width="1.5" stroke-miterlimit="10"/>
</svg>
