<svg width="17" height="22" viewBox="0 0 17 22" fill="none" xmlns="http://www.w3.org/2000/svg">
<path d="M10.4143 14.2261C10.413 14.7329 10.2107 15.2186 9.85187 15.5765C9.49301 15.9344 9.00685 16.1354 8.5 16.1354C7.99316 16.1354 7.507 15.9344 7.14814 15.5765C6.78928 15.2186 6.58702 14.7329 6.58571 14.2261C6.58488 13.9932 6.62809 13.7623 6.71307 13.5455C6.84971 13.1823 7.09407 12.8695 7.41344 12.649C7.7328 12.4285 8.11192 12.3108 8.5 12.3118C8.88667 12.3148 9.26349 12.4341 9.58147 12.6541C9.89945 12.8741 10.1439 13.1847 10.283 13.5455C10.3711 13.7615 10.4158 13.9928 10.4143 14.2261Z" stroke="#408540" stroke-width="1.5" stroke-miterlimit="10"/>
<path d="M14.2963 7.96338H14.3091C14.5312 7.96317 14.7512 8.00676 14.9565 8.09166C15.1617 8.17656 15.3482 8.3011 15.5052 8.45815C15.6623 8.6152 15.7868 8.80169 15.8717 9.00693C15.9566 9.21217 16.0002 9.43214 16 9.65424V18.7939C16.0002 19.016 15.9566 19.2359 15.8717 19.4412C15.7868 19.6464 15.6623 19.8329 15.5052 19.99C15.3482 20.147 15.1617 20.2716 14.9565 20.3565C14.7512 20.4414 14.5312 20.4849 14.3091 20.4847H2.69727C2.24803 20.4854 1.81689 20.3077 1.49863 19.9906C1.18037 19.6736 1.00102 19.2431 1 18.7939V9.65424C1.00102 9.205 1.18037 8.77455 1.49863 8.45748C1.81689 8.14042 2.24803 7.9627 2.69727 7.96338H2.71008" stroke="#408540" stroke-width="1.5" stroke-miterlimit="10"/>
<path d="M14.2963 6.75309V7.96359H2.71008V6.75309C2.71008 5.99232 2.85993 5.23901 3.15106 4.53615C3.44219 3.8333 3.86891 3.19467 4.40685 2.65673C4.94479 2.11879 5.58342 1.69207 6.28628 1.40094C6.98913 1.1098 7.74244 0.959961 8.50321 0.959961C9.26397 0.959961 10.0173 1.1098 10.7201 1.40094C11.423 1.69207 12.0616 2.11879 12.5996 2.65673C13.1375 3.19467 13.5642 3.8333 13.8554 4.53615C14.1465 5.23901 14.2963 5.99232 14.2963 6.75309V6.75309Z" stroke="#408540" stroke-width="1.5" stroke-miterlimit="10"/>
</svg>
