<svg width="47" height="36" viewBox="0 0 47 36" fill="none" xmlns="http://www.w3.org/2000/svg">
<path d="M1 26.4288C1 26.4288 7.77 21.6988 22.66 26.4288C22.66 26.4288 36.58 31.5688 45.75 26.4288" stroke="#53B253" stroke-width="1.5" stroke-miterlimit="10" stroke-linecap="round"/>
<path d="M1 32.5088C1 32.5088 7.77 27.7788 22.66 32.5088C22.66 32.5088 36.58 37.6588 45.75 32.5088" stroke="#53B253" stroke-width="1.5" stroke-miterlimit="10" stroke-linecap="round"/>
<path d="M34.64 28.7088L22.83 8.8388L30.59 6.4388C30.946 6.32904 31.2763 6.14884 31.5613 5.90891C31.8463 5.66899 32.0801 5.37423 32.249 5.04215C32.4178 4.71007 32.5182 4.34744 32.5441 3.97581C32.5701 3.60418 32.521 3.23112 32.4 2.8788C32.1687 2.20382 31.6867 1.64361 31.0538 1.31414C30.4209 0.98466 29.6856 0.911144 29 1.1088L18.65 4.1088C18.1717 4.24509 17.7306 4.48836 17.3602 4.82021C16.9898 5.15206 16.6997 5.56381 16.5118 6.02429C16.324 6.48478 16.2433 6.98196 16.2759 7.47823C16.3085 7.97449 16.4535 8.45684 16.7 8.8888L21.16 16.6688L8.90997 24.3688" stroke="#53B253" stroke-width="1.5" stroke-linecap="round" stroke-linejoin="round"/>
<path d="M35.75 21.2088C38.5335 21.2088 40.79 18.9523 40.79 16.1688C40.79 13.3853 38.5335 11.1288 35.75 11.1288C32.9665 11.1288 30.71 13.3853 30.71 16.1688C30.71 18.9523 32.9665 21.2088 35.75 21.2088Z" stroke="#53B253" stroke-width="1.5" stroke-linecap="round" stroke-linejoin="round"/>
</svg>
